<svg xmlns="http://www.w3.org/2000/svg" width="63.051" height="95.539"><defs><style>.cls-1{fill:#fff}</style></defs><g id="Group_20" data-name="Group 20" transform="translate(-1572.263 -6903.144)"><path id="Path_51" data-name="Path 51" class="cls-1" d="M1952.669 6928.4a42.069 42.069 0 00-.557-5.681 23.709 23.709 0 00-7.521-13.131 23.951 23.951 0 00-12.341-6.066c-.82-.14-1.644-.254-2.466-.381h-1.7v9.861a14.259 14.259 0 012.325.213 14.444 14.444 0 0111.374 9.135 19.359 19.359 0 011.088 8.147h.006v2.268l9.814-.014c-.005-1.503.063-2.93-.022-4.351z" transform="translate(-324.281)"/><path id="Path_52" data-name="Path 52" class="cls-1" d="M1673.1 6903.145a3.459 3.459 0 01-.479.111 23.534 23.534 0 00-10.253 3.3 24.358 24.358 0 00-11.828 17.119c-.145.8-.25 1.6-.373 2.406v6.692H1660v-.046h-.086c.094-2.439.126-4.8.3-7.161a11.836 11.836 0 011.607-4.859 14.74 14.74 0 0112.977-7.7v-9.861z" transform="translate(-70.998)"/><path id="Path_53" data-name="Path 53" class="cls-1" d="M1598.653 7160.67v-34.161h-10.569v-8.941h15.716v-20.919a4.167 4.167 0 00-.572.188c-4.371 2.139-8.733 4.295-13.11 6.422a1998.966 1998.966 0 01-16.627 8.009 1.8 1.8 0 00-1.219 1.906c.042 9.919.078 19.838-.007 29.755a19.352 19.352 0 001.983 8.389c3.073 6.649 7.983 11.81 13.576 16.376a75.712 75.712 0 009.574 6.584q.63.371 1.255.747v-14.355z" transform="translate(0 -176.355)"/><path id="Path_54" data-name="Path 54" class="cls-1" d="M1959.593 7113.021a1.448 1.448 0 00-.964-1.531q-8.224-3.958-16.416-7.984c-4.343-2.124-8.678-4.268-13.019-6.4-.361-.177-.744-.308-1.117-.46v20.919h15.81v8.941h-10.731v34.249h-.006v14.279a80.518 80.518 0 0013.279-9.426 43.805 43.805 0 0011.417-14.913 18.668 18.668 0 001.745-7.728c-.05-9.98-.03-19.967.002-29.946z" transform="translate(-324.279 -176.355)"/></g></svg>